<?xml version="1.0" encoding="iso-8859-1"?>
<!-- Uploaded to: SVG Repo, www.svgrepo.com, Generator: SVG Repo Mixer Tools -->
<svg height="800px" width="800px" version="1.1" id="Layer_1" xmlns="http://www.w3.org/2000/svg" xmlns:xlink="http://www.w3.org/1999/xlink"
	 viewBox="0 0 511.975 511.975" xml:space="preserve">
<g>
	<path style="fill:#A4A4A4;" d="M173.559,156.191c-4.799,0-8.678-3.888-8.678-8.678v-34.712c0-19.144,15.568-34.712,34.712-34.712
		c4.799,0,8.678,3.888,8.678,8.678s-3.879,8.678-8.678,8.678c-9.572,0-17.356,7.784-17.356,17.356v34.712
		C182.237,152.303,178.358,156.191,173.559,156.191"/>
	<path style="fill:#535353;" d="M503.322,399.174v-34.712h-7.09c-1.84-5.597-6.109-15.69-12.288-24.368l4.999-5.007l-16.991-16.991
		l-5.007,4.999c-8.678-6.179-18.77-10.448-24.368-12.288v-7.09h-34.712v7.09c-5.597,1.84-15.69,6.109-24.368,12.288l-5.007-4.999
		l-16.991,16.991l4.999,5.007c-6.179,8.678-10.448,18.77-12.288,24.368h-7.09v34.712h7.09c1.84,5.597,6.109,15.69,12.288,24.368
		l-4.999,5.007l16.991,16.991l5.007-4.999c8.678,6.179,18.77,10.448,24.368,12.288v7.09h34.712v-7.09
		c5.597-1.84,15.69-6.109,24.368-12.288l5.007,4.999l16.991-16.991l-4.999-5.007c6.179-8.678,10.448-18.77,12.288-24.368H503.322z"
		/>
	<path style="fill:#A4A4A4;" d="M459.932,381.818c0,19.17-15.542,34.712-34.712,34.712s-34.712-15.542-34.712-34.712
		c0-19.17,15.542-34.712,34.712-34.712S459.932,362.648,459.932,381.818"/>
	<path style="fill:#535353;" d="M138.847,390.496c0,38.339-31.084,69.424-69.424,69.424S0,428.835,0,390.496
		s31.084-69.424,69.424-69.424S138.847,352.157,138.847,390.496"/>
	<path style="fill:#81C784;" d="M313.878,364.462h-180.12c3.254,8.044,5.094,16.818,5.094,26.034c0,2.942-0.252,5.832-0.607,8.678
		h175.633c-0.876-5.675-1.467-11.438-1.467-17.356S313.001,370.137,313.878,364.462"/>
	<polygon style="fill:#535353;" points="156.203,295.038 190.915,295.038 190.915,147.513 156.203,147.513 	"/>
	<g>
		<path style="fill:#81C784;" d="M156.203,208.259H60.746c-19.17,0-34.712,15.542-34.712,34.712v17.356h130.169V208.259z"/>
		<polygon style="fill:#81C784;" points="190.915,260.326 260.339,260.326 260.339,208.259 190.915,208.259 		"/>
	</g>
	<path style="fill:#A4A4A4;" d="M95.458,390.496c0,14.379-11.655,26.034-26.034,26.034S43.39,404.875,43.39,390.496
		s11.655-26.034,26.034-26.034S95.458,376.116,95.458,390.496"/>
	<path style="fill:#4CAF50;" d="M260.339,52.055v156.203v52.068h-69.424v34.712h-34.712v-34.712H26.034v76.019
		c11.889-9.537,26.962-15.273,43.39-15.273c29.132,0,54.029,17.955,64.33,43.39h180.12c3.02-19.491,10.969-37.315,22.623-52.163l0,0
		c20.636-26.329,52.675-43.294,88.724-43.294c22.051,0,42.548,6.422,59.93,17.356l18.172-43.39V52.055H260.339z"/>
	<g>
		<polygon style="fill:#9FD0F4;" points="381.831,190.903 468.61,190.903 468.61,86.767 381.831,86.767 		"/>
		<polygon style="fill:#9FD0F4;" points="260.339,190.903 347.119,190.903 347.119,86.767 260.339,86.767 		"/>
	</g>
	<g>
		<path style="fill:#81C784;" d="M312.407,303.716h-43.39c-4.799,0-8.678-3.888-8.678-8.678c0-4.79,3.879-8.678,8.678-8.678h43.39
			c4.799,0,8.678,3.888,8.678,8.678C321.085,299.828,317.206,303.716,312.407,303.716"/>
		<path style="fill:#81C784;" d="M286.373,338.428h-43.39c-4.799,0-8.678-3.888-8.678-8.678c0-4.79,3.879-8.678,8.678-8.678h43.39
			c4.799,0,8.678,3.888,8.678,8.678C295.051,334.54,291.172,338.428,286.373,338.428"/>
		<path style="fill:#81C784;" d="M321.076,433.937c-3.393,0-6.621-2.005-8.01-5.337c-6.196-14.839-9.337-30.572-9.337-46.783
			c0-66.994,54.498-121.492,121.492-121.492c31.501,0,61.362,12.002,84.081,33.801c3.463,3.315,3.575,8.817,0.26,12.271
			c-3.324,3.462-8.808,3.575-12.271,0.26c-19.473-18.684-45.073-28.976-72.071-28.976c-57.422,0-104.136,46.714-104.136,104.136
			c0,13.902,2.699,27.388,8.001,40.092c1.848,4.426-0.234,9.502-4.66,11.351C323.332,433.72,322.196,433.937,321.076,433.937"/>
	</g>
</g>
</svg>